<svg width="49" height="48" viewBox="0 0 49 48" fill="none" xmlns="http://www.w3.org/2000/svg">
<path d="M32.5 32L24.5 24L16.5 32" stroke="black" stroke-opacity="0.4" stroke-width="2" stroke-linecap="round" stroke-linejoin="round"/>
<path d="M24.5 24V42" stroke="black" stroke-opacity="0.4" stroke-width="2" stroke-linecap="round" stroke-linejoin="round"/>
<path d="M41.28 36.78C43.2307 35.7166 44.7717 34.0338 45.6598 31.9973C46.5479 29.9608 46.7325 27.6865 46.1845 25.5334C45.6364 23.3803 44.387 21.4711 42.6334 20.1069C40.8797 18.7428 38.7218 18.0015 36.5 18H33.98C33.3747 15.6585 32.2464 13.4847 30.6799 11.642C29.1135 9.79933 27.1497 8.33573 24.9362 7.36124C22.7227 6.38676 20.3171 5.92675 17.9003 6.01579C15.4834 6.10484 13.1182 6.74063 10.9824 7.87536C8.84662 9.01009 6.99586 10.6142 5.56929 12.5672C4.14271 14.5202 3.17742 16.7711 2.746 19.1508C2.31458 21.5305 2.42825 23.9771 3.07847 26.3066C3.72869 28.636 4.89853 30.7878 6.50004 32.6" stroke="black" stroke-opacity="0.4" stroke-width="2" stroke-linecap="round" stroke-linejoin="round"/>
<path d="M32.5 32L24.5 24L16.5 32" stroke="black" stroke-opacity="0.4" stroke-width="2" stroke-linecap="round" stroke-linejoin="round"/>
</svg>
