<svg width="23" height="25" viewBox="0 0 23 25" fill="none" xmlns="http://www.w3.org/2000/svg">
<path fill-rule="evenodd" clip-rule="evenodd" d="M15.1838 23.3299C17.3627 22.7185 19.6438 22.41 21.8567 22.1274C22.3334 22.0682 22.7759 22.3988 22.8099 22.8645C22.878 23.3306 22.5374 23.7568 22.0948 23.816C19.95 24.0881 17.7373 24.3791 15.6606 24.9678C15.218 25.0954 14.7412 24.8326 14.605 24.3805C14.4688 23.9287 14.7412 23.4579 15.1838 23.3299Z" fill="black"/>
<path fill-rule="evenodd" clip-rule="evenodd" d="M8.57947 14.6612C12.0861 11.0828 16.0352 7.96497 19.4737 4.29055C19.7801 3.94738 20.3248 3.929 20.6653 4.24936C21.0057 4.57005 21.0396 5.10932 20.6992 5.45249C17.2607 9.13746 13.3115 12.2655 9.80494 15.8544C9.4645 16.1894 8.91992 16.1942 8.57947 15.8646C8.27307 15.5354 8.23903 14.9962 8.57947 14.6612Z" fill="black"/>
<path fill-rule="evenodd" clip-rule="evenodd" d="M2.00844 0.89733C1.9063 2.94544 1.80437 4.99355 1.70224 7.04201C1.70224 7.51114 1.29351 7.87337 0.816885 7.85056C0.340265 7.82741 2.09808e-05 7.42807 2.09808e-05 6.9586C0.102154 4.90708 0.204087 2.8559 0.30622 0.804728C0.340265 0.335595 0.748863 -0.0242543 1.22548 0.00127899C1.66806 0.0268123 2.04248 0.428538 2.00844 0.89733Z" fill="black"/>
</svg>
