<svg width="160" height="103" viewBox="0 0 160 103" fill="none" xmlns="http://www.w3.org/2000/svg">
<path fill-rule="evenodd" clip-rule="evenodd" d="M74.8899 87.0557C92.946 96.8399 113.597 104.027 134.072 102.619C141.522 102.107 148.418 99.959 155.498 97.8233C155.995 97.6743 156.278 97.1479 156.129 96.6487C155.977 96.1496 155.451 95.8665 154.952 96.018C148.008 98.1114 141.249 100.235 133.943 100.736C113.759 102.124 93.4129 94.9774 75.6299 85.3124L75.7566 85.0268C77.1398 81.9302 76.283 77.4105 74.0232 72.6674C70.785 65.8681 64.7555 58.5622 59.3295 54.5268C56.8909 52.714 54.5541 51.5617 52.627 51.3209C51.1246 51.1321 49.8358 51.4699 48.84 52.3688C46.7192 54.286 46.7937 57.5565 48.4749 61.3485C51.9888 69.2802 62.3094 79.725 67.9068 83.075C69.6551 84.1204 71.4331 85.1485 73.2385 86.1493C73.01 86.7006 72.784 87.2395 72.5407 87.7535C71.8429 89.2162 70.9861 90.4951 69.3347 91.3717C66.7595 92.735 63.6728 92.9709 60.514 92.6183C55.5847 92.0645 50.4815 90.0605 46.7242 88.3396C25.7998 78.754 15.437 62.1282 9.87934 45.4379C4.26955 28.5812 3.53449 11.645 1.87316 1.65468C1.78872 1.14064 1.302 0.795459 0.78795 0.879892C0.273905 0.964324 -0.0737572 1.45105 0.0131586 1.9651C1.68443 12.02 2.44181 29.0655 8.09134 46.0339C13.793 63.1688 24.4588 80.2142 45.937 90.0555C49.8507 91.8485 55.1699 93.9171 60.3029 94.4932C63.8565 94.8905 67.3208 94.5727 70.2188 93.038C72.8188 91.6598 73.8519 89.5092 74.8899 87.0557ZM73.9711 84.3986L74.0356 84.257C75.245 81.5502 74.2964 77.6266 72.3197 73.4795C69.2081 66.9459 63.4195 59.9206 58.2021 56.0416C56.4141 54.7106 54.7031 53.7545 53.1982 53.3522C51.9565 53.0219 50.8788 53.0691 50.1065 53.7694C49.3739 54.4275 49.0833 55.3339 49.0957 56.3893C49.1082 57.6285 49.5204 59.0514 50.1984 60.5836C53.5757 68.2049 63.4965 78.2375 68.8753 81.4558C70.5466 82.4541 72.2452 83.4375 73.9711 84.3986Z" fill="#1E3240"/>
<path fill-rule="evenodd" clip-rule="evenodd" d="M157.892 94.9037C157.81 95.3085 157.535 95.8176 157.232 96.3615C156.511 97.6578 155.486 99.0385 155.029 99.709C154.736 100.141 154.85 100.727 155.28 101.02C155.712 101.313 156.298 101.201 156.591 100.769C157.15 99.9474 158.513 98.1047 159.246 96.5775C159.638 95.758 159.842 95.0006 159.797 94.4567C159.722 93.5305 158.99 92.9518 157.537 92.9866C155.819 93.0288 152.627 93.8905 149.955 92.855C149.471 92.6663 148.922 92.9096 148.736 93.3939C148.547 93.8806 148.788 94.427 149.275 94.6157C151.823 95.6016 154.793 95.1272 156.792 94.9286C157.172 94.8913 157.624 94.8963 157.892 94.9037Z" fill="#1E3240"/>
</svg>
