<svg width="10" height="12" viewBox="0 0 10 12" fill="none" xmlns="http://www.w3.org/2000/svg">
<path d="M4.99998 0.166748C2.54998 0.166748 0.333313 2.04508 0.333313 4.95008C0.333313 6.80508 1.76248 8.98675 4.61498 11.5009C4.83665 11.6934 5.16915 11.6934 5.39081 11.5009C8.23748 8.98675 9.66665 6.80508 9.66665 4.95008C9.66665 2.04508 7.44998 0.166748 4.99998 0.166748ZM4.99998 6.00008C4.35831 6.00008 3.83331 5.47508 3.83331 4.83342C3.83331 4.19175 4.35831 3.66675 4.99998 3.66675C5.64165 3.66675 6.16665 4.19175 6.16665 4.83342C6.16665 5.47508 5.64165 6.00008 4.99998 6.00008Z" fill="#BDBDBD"/>
</svg>
